PathFileType	4	(X/Y/Z)	c:/Users/goper/Files/vsCode/490R/osim_files/C06/C06_Static_02.trc
DataRate	CameraRate	NumFrames	NumMarkers	Units                	OrigDataRate	OrigDataStartFrame	OrigNumFrames
250.00	250.00	7	36	mm	250.0	1	1368
                Frame#	Time	LPSIS			LASIS			LTH1			LTH2			LTH3			LTH4			LLFE			LMFE			LSH1			LSH2			LSH3			LSH4			LLMAL			LMMAL			LCAL			LMTP5			LTOE			LMTP1			RPSIS			RASIS			RTH1			RTH2			RTH3			RTH4			RLFE			RMFE			RSH1			RSH2			RSH3			RSH4			RLMAL			RMMAL			RCAL			RMTP1			RTOE			RMTP5		
		X1	Y1	Z1	X2	Y2	Z2	X3	Y3	Z3	X4	Y4	Z4	X5	Y5	Z5	X6	Y6	Z6	X7	Y7	Z7	X8	Y8	Z8	X9	Y9	Z9	X10	Y10	Z10	X11	Y11	Z11	X12	Y12	Z12	X13	Y13	Z13	X14	Y14	Z14	X15	Y15	Z15	X16	Y16	Z16	X17	Y17	Z17	X18	Y18	Z18	X19	Y19	Z19	X20	Y20	Z20	X21	Y21	Z21	X22	Y22	Z22	X23	Y23	Z23	X24	Y24	Z24	X25	Y25	Z25	X26	Y26	Z26	X27	Y27	Z27	X28	Y28	Z28	X29	Y29	Z29	X30	Y30	Z30	X31	Y31	Z31	X32	Y32	Z32	X33	Y33	Z33	X34	Y34	Z34	X35	Y35	Z35	X36	Y36	Z36

1	0.00000	-368.39813	1014.25146	461.56290	-198.81721	977.43280	350.88260	-294.49368	793.83398	267.12653	-289.61118	731.93555	257.94748	-220.68185	790.53864	280.38672	-224.93103	730.20898	270.13107	-299.47720	480.69235	267.89969	-307.32761	445.07846	378.30472	-372.07141	376.45432	234.62395	-364.75244	333.34872	230.19537	-307.62131	382.12219	232.70425	-310.63766	338.18546	227.80219	-330.56882	92.23421	237.55296	-322.08572	103.57318	315.09250	-392.32755	65.73093	282.55896	-219.90082	31.90273	202.41571	-165.93037	56.85768	268.76443	-192.18283	37.79856	314.86676	-365.60812	1012.03064	533.17236	-179.09286	971.79657	590.60663	-273.37686	789.47473	688.67670	-266.18668	726.77252	690.93732	-200.99028	789.99988	668.55560	-204.20937	727.36438	674.77063	-288.01935	463.16068	677.92584	-283.95483	460.30099	567.58368	-346.46152	393.31946	708.88342	-344.65411	345.43033	715.69812	-286.45032	385.62143	699.30713	-293.15823	339.99295	706.43121	-323.32809	90.70866	695.98761	-315.40530	105.96088	618.05859	-388.13055	62.57462	656.05627	-184.43062	35.90235	610.43567	-163.66954	53.82472	655.86011	-205.61554	28.04922	723.99158
2	0.00400	-368.39496	1014.24896	461.56625	-198.80627	977.44531	350.87338	-294.53003	793.81384	267.14838	-289.64130	731.93719	257.95926	-220.68962	790.52167	280.37903	-224.93633	730.21783	270.14212	-299.49725	480.67993	267.90170	-307.33255	445.08017	378.30927	-372.07208	376.44296	234.62024	-364.75565	333.46002	230.18488	-307.62482	382.10620	232.69894	-310.65118	338.20224	227.77678	-330.58365	92.21819	237.59326	-322.07355	103.57608	315.09531	-392.33380	65.73052	282.57373	-219.90067	31.89170	202.43221	-165.95251	56.83116	268.75055	-192.17062	37.80825	314.87119	-365.61996	1012.03540	533.16754	-179.09290	971.79132	590.59943	-273.38336	789.46014	688.66272	-266.16968	726.76904	690.90564	-200.97026	790.03339	668.54358	-204.24265	727.35876	674.76752	-288.02368	463.15533	677.91498	-283.94165	460.30322	567.57758	-346.47946	393.31732	708.89771	-344.61578	345.42499	715.71429	-286.44397	385.62845	699.30145	-293.15067	340.00946	706.42981	-323.32755	90.70300	695.98798	-315.41580	105.95213	618.06622	-388.15622	62.57730	656.05884	-184.42404	35.90804	610.44513	-163.67976	53.81097	655.87347	-205.28568	28.34626	724.15289
3	0.00800	-368.43527	1014.26172	461.56577	-198.81487	977.45203	350.87741	-294.53333	793.83936	267.14502	-289.65363	731.94354	257.94876	-220.68637	790.54834	280.39951	-224.95082	730.22754	270.11975	-299.48981	480.68631	267.91190	-307.36383	445.06442	378.28204	-372.10315	376.46609	234.61900	-364.80380	333.47269	230.12837	-307.62125	382.12457	232.71089	-310.61157	338.18637	227.77264	-330.57169	92.23866	237.58470	-322.08124	103.57766	315.07980	-392.33563	65.74061	282.56366	-219.89317	31.89330	202.42044	-166.33974	56.49275	269.05469	-192.16797	37.82409	314.85828	-365.66025	1012.05896	533.16754	-179.07561	971.81256	590.58264	-273.37402	789.45294	688.66663	-266.18741	726.75732	690.92181	-200.98242	790.02618	668.52808	-204.21762	727.37292	674.75000	-288.00137	463.15610	677.90912	-283.95392	460.30780	567.56525	-346.46268	393.31937	708.87799	-344.65570	345.43643	715.70087	-286.43994	385.62305	699.28979	-293.13058	340.01538	706.41705	-323.34073	90.69384	695.98505	-315.41779	105.96738	618.07440	-388.11945	62.60971	656.06915	-184.43942	35.89822	610.44293	-163.67075	53.83987	655.86969	-205.61128	28.06194	723.99506
4	0.01200	-368.44662	1014.26416	461.57080	-198.80963	977.47607	350.85162	-294.54520	793.81384	267.14651	-289.67923	731.92773	257.97437	-220.68913	790.53168	280.36530	-224.95981	730.20465	270.11853	-299.48328	480.68524	267.91086	-307.38324	445.03983	378.28445	-372.10645	376.45743	234.62541	-364.76334	333.37112	230.27946	-307.59241	382.12244	232.70276	-310.62506	338.21307	227.77412	-330.59885	92.22707	237.59421	-322.12430	103.58916	315.07361	-392.32782	65.74087	282.54282	-219.88084	31.88203	202.42810	-166.38437	56.44513	269.05365	-192.16882	37.83084	314.84265	-365.66306	1012.05444	533.17554	-179.09306	971.79535	590.55328	-273.40076	789.46942	688.66125	-266.19241	726.78723	690.90729	-200.97678	790.04193	668.53485	-204.21356	727.37561	674.74512	-288.02408	463.14575	677.92133	-283.91855	460.32666	567.55597	-346.52518	393.35165	708.87830	-344.65216	345.44519	715.68921	-286.42404	385.63803	699.27435	-293.13998	340.02292	706.42047	-323.34006	90.71328	695.97333	-315.42035	105.95896	618.09656	-388.13272	62.62758	656.01605	-184.45105	35.88565	610.45789	-163.67421	53.83669	655.85773	-205.61240	28.06603	723.98273
5	0.01600	-368.45309	1014.27802	461.56302	-198.82463	977.50342	350.83664	-294.58612	793.81384	267.15302	-289.68869	731.93091	257.96649	-220.69270	790.56323	280.35236	-224.95767	730.22705	270.09283	-299.49481	480.69263	267.89886	-307.37866	445.05249	378.28735	-372.09052	376.46420	234.61877	-364.78308	333.47778	230.10869	-307.61697	382.14185	232.69612	-310.69995	338.17084	227.77377	-330.60361	92.22082	237.59529	-322.09616	103.61681	315.06714	-392.34952	65.78758	282.52353	-219.90227	31.90352	202.41328	-165.96004	56.84022	268.77496	-192.14206	37.86628	314.82559	-365.64252	1012.06171	533.17218	-179.09326	971.81946	590.53302	-273.39706	789.49164	688.65448	-266.19516	726.81293	690.89795	-200.96149	790.07910	668.52039	-204.20512	727.42407	674.73816	-288.01373	463.17657	677.91058	-283.92755	460.33618	567.54919	-346.52005	393.38852	708.84326	-344.65198	345.49194	715.69189	-286.41409	385.67245	699.25995	-293.11499	340.06378	706.38959	-323.34836	90.73555	695.99243	-315.42300	105.96298	618.08875	-388.13217	62.62199	655.97308	-184.44052	35.89283	610.45953	-163.65332	53.85877	655.84570	-205.27380	28.38009	724.11938
6	0.02000	-368.46329	1014.29248	461.55875	-198.82234	977.51337	350.81708	-294.59424	793.80927	267.17151	-289.72232	731.93231	257.97870	-220.71097	790.56628	280.34045	-224.93875	730.23755	270.08658	-299.48090	480.69067	267.89227	-307.36493	445.07401	378.29352	-372.08566	376.46158	234.61691	-364.74823	333.42776	230.09503	-307.59320	382.13663	232.68582	-310.66940	338.18024	227.74832	-330.57455	92.22055	237.58284	-322.12143	103.63787	315.05011	-392.38062	65.79140	282.52139	-219.87195	31.89978	202.41209	-166.93227	56.27841	269.61829	-192.14883	37.86382	314.80994	-365.65244	1012.07196	533.16815	-179.10092	971.82336	590.52789	-273.40469	789.51483	688.64905	-266.20462	726.84119	690.89996	-200.96123	790.09796	668.50580	-204.20164	727.43524	674.70416	-288.01660	463.18753	677.90106	-283.93945	460.30872	567.56097	-346.52103	393.41418	708.83911	-344.64413	345.51736	715.65741	-286.41751	385.67554	699.27301	-293.13007	340.07703	706.39398	-323.35251	90.74466	695.96588	-315.40796	105.97142	618.07538	-388.14023	62.65767	655.92981	-184.43755	35.89169	610.44263	-163.63654	53.84880	655.84357	-205.60240	28.11987	723.95856
7	0.02400	-368.48160	1014.30078	461.55045	-198.84981	977.49487	350.80817	-294.60184	793.79779	267.14780	-289.70264	731.92206	257.94391	-220.68817	790.56628	280.32416	-224.97316	730.23151	270.06818	-299.48907	480.69122	267.88895	-307.37274	445.06976	378.29102	-372.07425	376.46030	234.60121	-364.81372	333.33917	230.06557	-307.60291	382.13531	232.66168	-310.68384	338.17740	227.76721	-330.58508	92.22338	237.57739	-322.12531	103.63576	315.05719	-392.34439	65.79685	282.50723	-219.88736	31.88309	202.39757	-165.91698	56.57330	268.83234	-192.13199	37.86857	314.80801	-365.65152	1012.07452	533.16455	-179.10941	971.81885	590.50677	-273.43756	789.50085	688.64038	-266.21927	726.84106	690.87109	-200.98373	790.08759	668.50586	-204.21046	727.43085	674.70471	-288.02121	463.18994	677.90424	-283.91281	460.30756	567.52692	-346.52588	393.44229	708.84033	-344.67532	345.51520	715.66559	-286.40546	385.70343	699.25537	-293.12189	340.06305	706.39288	-323.38150	90.74496	695.96228	-315.40402	105.96977	618.07721	-388.11990	62.62565	655.90448	-184.43770	35.88894	610.45068	-163.63651	53.83659	655.83368	-205.62106	28.12925	723.95459
